<svg width="168" height="34" viewBox="0 0 168 34" fill="none" xmlns="http://www.w3.org/2000/svg">
<path d="M14.39 4.78881C14.7677 3.54873 16.5234 3.54873 16.9011 4.78881L18.8001 11.0231C18.9684 11.5756 19.4781 11.9532 20.0557 11.9532H26.3725C27.6233 11.9532 28.1652 13.5369 27.1765 14.3031L21.9234 18.3741C21.4928 18.7078 21.3131 19.2729 21.4719 19.794L23.4435 26.2666C23.8164 27.4909 22.3955 28.4704 21.3839 27.6865L16.4495 23.8624C15.9763 23.4956 15.3148 23.4956 14.8415 23.8624L9.90715 27.6865C8.89553 28.4704 7.47466 27.4909 7.8476 26.2666L9.81922 19.794C9.97796 19.2729 9.79827 18.7078 9.36766 18.3741L4.11462 14.3031C3.12591 13.5369 3.66775 11.9532 4.91862 11.9532H11.2354C11.813 11.9532 12.3226 11.5756 12.4909 11.0231L14.39 4.78881Z" fill="#D9D9D9"/>
<path d="M48.5153 4.78881C48.8931 3.54873 50.6487 3.54873 51.0265 4.78881L52.9255 11.0231C53.0938 11.5756 53.6035 11.9532 54.1811 11.9532H60.4978C61.7487 11.9532 62.2905 13.5369 61.3018 14.3031L56.0488 18.3741C55.6182 18.7078 55.4385 19.2729 55.5972 19.794L57.5688 26.2666C57.9418 27.4909 56.5209 28.4704 55.5093 27.6865L50.5749 23.8624C50.1016 23.4956 49.4402 23.4956 48.9669 23.8624L44.0325 27.6865C43.0209 28.4704 41.6 27.4909 41.973 26.2666L43.9446 19.794C44.1033 19.2729 43.9236 18.7078 43.493 18.3741L38.24 14.3031C37.2513 13.5369 37.7931 11.9532 39.044 11.9532H45.3608C45.9383 11.9532 46.448 11.5756 46.6163 11.0231L48.5153 4.78881Z" fill="#D9D9D9"/>
<path d="M82.6406 4.78881C83.0183 3.54873 84.774 3.54873 85.1517 4.78881L87.0507 11.0231C87.219 11.5756 87.7287 11.9532 88.3063 11.9532H94.6231C95.8739 11.9532 96.4158 13.5369 95.4271 14.3031L90.174 18.3741C89.7434 18.7078 89.5637 19.2729 89.7225 19.794L91.6941 26.2666C92.067 27.4909 90.6462 28.4704 89.6345 27.6865L84.7001 23.8624C84.2269 23.4956 83.5654 23.4956 83.0922 23.8624L78.1578 27.6865C77.1461 28.4704 75.7253 27.4909 76.0982 26.2666L78.0698 19.794C78.2286 19.2729 78.0489 18.7078 77.6183 18.3741L72.3652 14.3031C71.3765 13.5369 71.9184 11.9532 73.1692 11.9532H79.486C80.0636 11.9532 80.5733 11.5756 80.7416 11.0231L82.6406 4.78881Z" fill="#D9D9D9"/>
<path d="M116.766 4.78881C117.144 3.54873 118.899 3.54873 119.277 4.78881L121.176 11.0231C121.344 11.5756 121.854 11.9532 122.432 11.9532H128.748C129.999 11.9532 130.541 13.5369 129.552 14.3031L124.299 18.3741C123.869 18.7078 123.689 19.2729 123.848 19.794L125.819 26.2666C126.192 27.4909 124.772 28.4704 123.76 27.6865L118.826 23.8624C118.352 23.4956 117.691 23.4956 117.218 23.8624L112.283 27.6865C111.272 28.4704 109.851 27.4909 110.224 26.2666L112.195 19.794C112.354 19.2729 112.174 18.7078 111.744 18.3741L106.491 14.3031C105.502 13.5369 106.044 11.9532 107.295 11.9532H113.611C114.189 11.9532 114.699 11.5756 114.867 11.0231L116.766 4.78881Z" fill="#D9D9D9"/>
<path d="M150.891 4.78881C151.269 3.54873 153.025 3.54873 153.402 4.78881L155.301 11.0231C155.47 11.5756 155.979 11.9532 156.557 11.9532H162.874C164.125 11.9532 164.667 13.5369 163.678 14.3031L158.425 18.3741C157.994 18.7078 157.814 19.2729 157.973 19.794L159.945 26.2666C160.318 27.4909 158.897 28.4704 157.885 27.6865L152.951 23.8624C152.478 23.4956 151.816 23.4956 151.343 23.8624L146.408 27.6865C145.397 28.4704 143.976 27.4909 144.349 26.2666L146.321 19.794C146.479 19.2729 146.3 18.7078 145.869 18.3741L140.616 14.3031C139.627 13.5369 140.169 11.9532 141.42 11.9532H147.737C148.314 11.9532 148.824 11.5756 148.992 11.0231L150.891 4.78881Z" fill="white" fill-opacity="0.3"/>
</svg>
