<svg width="256" height="67" viewBox="0 0 256 67" fill="none" xmlns="http://www.w3.org/2000/svg">
<path d="M27.5283 8.70996C17.887 8.70996 10.0713 16.4533 10.0713 26.005C10.0713 35.5568 28.0598 57.3421 28.0598 57.3421C28.0598 57.3421 44.9856 35.5568 44.9856 26.005C44.9856 16.4533 37.1696 8.70996 27.5283 8.70996ZM27.5283 12.2206C35.2126 12.2206 41.442 18.3921 41.442 26.005C41.442 33.618 35.2126 39.7895 27.5283 39.7895C19.844 39.7895 13.6146 33.618 13.6146 26.005C13.6146 18.3921 19.844 12.2206 27.5283 12.2206Z" fill="white"/>
<path d="M27.5283 8.70996C17.887 8.70996 10.0713 16.4533 10.0713 26.005C10.0713 35.5568 28.0598 57.3421 28.0598 57.3421C28.0598 57.3421 44.9856 35.5568 44.9856 26.005C44.9856 16.4533 37.1696 8.70996 27.5283 8.70996ZM27.5283 12.2206C35.2126 12.2206 41.442 18.3921 41.442 26.005C41.442 33.618 35.2126 39.7895 27.5283 39.7895C19.844 39.7895 13.6146 33.618 13.6146 26.005C13.6146 18.3921 19.844 12.2206 27.5283 12.2206Z" fill="url(#paint0_linear_91_478)"/>
<path d="M35.3321 28.0484L32.427 26.5975C32.3712 26.5705 32.3361 26.5136 32.3371 26.4517V25.6512L32.4382 25.5121C32.8085 24.9889 33.1105 24.4207 33.337 23.8213C33.8529 23.4787 34.1632 22.9014 34.1638 22.283V21.0608C34.1635 20.6994 34.0564 20.346 33.856 20.045V19.4036C33.9242 18.5174 33.6383 17.6403 33.0606 16.9638C32.3102 16.1072 31.1373 15.6744 29.5645 15.6744C28.7958 15.6571 28.0316 15.7952 27.3177 16.0803C26.604 15.7945 25.8396 15.6564 25.0709 15.6744C23.4981 15.6744 22.3252 16.1094 21.5748 16.9638C21.001 17.638 20.7154 18.5101 20.7794 19.3924V20.045C20.5814 20.3453 20.476 20.6969 20.4761 21.0563V22.2717C20.475 22.7538 20.6639 23.2169 21.0019 23.5612C21.218 24.2987 21.5543 24.9957 21.9972 25.6242V26.4203C21.9972 26.4801 21.9644 26.5352 21.9118 26.5638L19.1954 28.0439C18.1076 28.6359 17.431 29.774 17.4316 31.0107V32.2642C17.4316 32.6357 17.7334 32.9369 18.1057 32.9369H36.5297C36.902 32.9369 37.2038 32.6357 37.2038 32.2642V31.0712C37.2076 29.7901 36.4819 28.618 35.3321 28.0484ZM35.9417 31.6737H32.8037V31.1476C32.8075 29.8521 32.0836 28.6669 30.9366 28.0908L28.0384 26.6236C27.9827 26.5963 27.9478 26.5388 27.9487 26.4762V25.6667L28.0496 25.5261C28.419 24.9969 28.7203 24.4224 28.9462 23.8162C29.4609 23.4698 29.7704 22.8861 29.771 22.2606V21.0247C29.7707 20.6592 29.6639 20.3019 29.464 19.9975V19.3489C29.5269 18.5073 29.2794 17.6719 28.7691 17.0042C29.0657 16.9575 29.3655 16.9348 29.6657 16.9361C30.8267 16.9361 31.6583 17.2196 32.1425 17.7774C32.4795 18.1853 32.646 18.71 32.6064 19.2401C32.6051 19.265 32.6051 19.29 32.6064 19.3149V20.222C32.6068 20.3895 32.6683 20.551 32.779 20.6755C32.8633 20.7674 32.9105 20.888 32.9113 21.0134V22.2425C32.9079 22.4402 32.7904 22.6176 32.6109 22.696C32.44 22.7729 32.3084 22.9183 32.2478 23.0974C32.0559 23.6713 31.7833 24.2143 31.4387 24.7097C31.3737 24.8049 31.3064 24.8934 31.2437 24.9682C31.1439 25.09 31.0892 25.2432 31.089 25.4013V26.4513C31.0885 27.0283 31.4117 27.5557 31.9228 27.8119L34.821 29.3085C35.5109 29.6548 35.9458 30.3684 35.9417 31.1476V31.6737Z" fill="white"/>
<path d="M35.3321 28.0484L32.427 26.5975C32.3712 26.5705 32.3361 26.5136 32.3371 26.4517V25.6512L32.4382 25.5121C32.8085 24.9889 33.1105 24.4207 33.337 23.8213C33.8529 23.4787 34.1632 22.9014 34.1638 22.283V21.0608C34.1635 20.6994 34.0564 20.346 33.856 20.045V19.4036C33.9242 18.5174 33.6383 17.6403 33.0606 16.9638C32.3102 16.1072 31.1373 15.6744 29.5645 15.6744C28.7958 15.6571 28.0316 15.7952 27.3177 16.0803C26.604 15.7945 25.8396 15.6564 25.0709 15.6744C23.4981 15.6744 22.3252 16.1094 21.5748 16.9638C21.001 17.638 20.7154 18.5101 20.7794 19.3924V20.045C20.5814 20.3453 20.476 20.6969 20.4761 21.0563V22.2717C20.475 22.7538 20.6639 23.2169 21.0019 23.5612C21.218 24.2987 21.5543 24.9957 21.9972 25.6242V26.4203C21.9972 26.4801 21.9644 26.5352 21.9118 26.5638L19.1954 28.0439C18.1076 28.6359 17.431 29.774 17.4316 31.0107V32.2642C17.4316 32.6357 17.7334 32.9369 18.1057 32.9369H36.5297C36.902 32.9369 37.2038 32.6357 37.2038 32.2642V31.0712C37.2076 29.7901 36.4819 28.618 35.3321 28.0484ZM35.9417 31.6737H32.8037V31.1476C32.8075 29.8521 32.0836 28.6669 30.9366 28.0908L28.0384 26.6236C27.9827 26.5963 27.9478 26.5388 27.9487 26.4762V25.6667L28.0496 25.5261C28.419 24.9969 28.7203 24.4224 28.9462 23.8162C29.4609 23.4698 29.7704 22.8861 29.771 22.2606V21.0247C29.7707 20.6592 29.6639 20.3019 29.464 19.9975V19.3489C29.5269 18.5073 29.2794 17.6719 28.7691 17.0042C29.0657 16.9575 29.3655 16.9348 29.6657 16.9361C30.8267 16.9361 31.6583 17.2196 32.1425 17.7774C32.4795 18.1853 32.646 18.71 32.6064 19.2401C32.6051 19.265 32.6051 19.29 32.6064 19.3149V20.222C32.6068 20.3895 32.6683 20.551 32.779 20.6755C32.8633 20.7674 32.9105 20.888 32.9113 21.0134V22.2425C32.9079 22.4402 32.7904 22.6176 32.6109 22.696C32.44 22.7729 32.3084 22.9183 32.2478 23.0974C32.0559 23.6713 31.7833 24.2143 31.4387 24.7097C31.3737 24.8049 31.3064 24.8934 31.2437 24.9682C31.1439 25.09 31.0892 25.2432 31.089 25.4013V26.4513C31.0885 27.0283 31.4117 27.5557 31.9228 27.8119L34.821 29.3085C35.5109 29.6548 35.9458 30.3684 35.9417 31.1476V31.6737Z" fill="url(#paint1_linear_91_478)"/>
<path d="M74.46 25.256V21.8H59.52V47H62.976V36.128H74.46V32.672H62.976V25.256H74.46ZM86.3189 27.992C84.0869 27.992 82.2869 28.532 80.9189 29.576C79.4789 30.656 78.6149 32.24 78.4349 34.22L81.8549 34.58C81.9269 33.824 82.1789 31.448 86.3189 31.448H86.3549C87.9029 31.448 89.0909 31.808 89.8109 32.456C90.4949 33.032 90.8549 33.968 90.8549 35.192V35.768H85.5629C83.4749 35.768 81.7829 36.236 80.5589 37.1C79.8389 37.604 79.2989 38.216 78.9389 38.972C78.5789 39.692 78.3989 40.52 78.3989 41.384C78.3989 42.284 78.5789 43.076 78.9389 43.796C79.2989 44.552 79.8389 45.164 80.5589 45.668C81.7829 46.568 83.4749 47 85.5629 47H86.3549C88.1189 47 89.6309 46.676 90.8549 46.028V47H94.3109V35.192C94.3109 32.96 93.5189 31.124 92.0789 29.864C90.7109 28.64 88.7669 27.992 86.3549 27.992H86.3189ZM90.8549 39.224V39.836C90.8549 41.06 90.4949 41.96 89.8109 42.572C89.0909 43.22 87.9029 43.544 86.3549 43.544H85.5629C83.8709 43.544 83.0069 43.184 82.5389 42.86C82.2509 42.644 81.8549 42.248 81.8549 41.384C81.8549 40.52 82.2509 40.16 82.5389 39.908C83.3309 39.368 84.6269 39.224 85.5629 39.224H90.8549ZM106.218 27.992C103.77 27.992 101.862 28.64 100.458 29.864C99.0182 31.124 98.2622 32.96 98.2622 35.192V39.836C98.2622 42.068 99.0182 43.904 100.458 45.164C101.862 46.388 103.77 47 106.218 47C109.89 47 112.518 45.524 113.598 42.824L110.394 41.528C109.854 42.86 108.45 43.544 106.218 43.544C104.67 43.544 103.482 43.22 102.726 42.572C102.078 41.96 101.718 41.06 101.718 39.836V35.192C101.718 33.968 102.078 33.032 102.726 32.456C103.482 31.808 104.67 31.448 106.218 31.448C108.45 31.448 109.854 32.132 110.394 33.5L113.598 32.204C112.518 29.504 109.89 27.992 106.218 27.992ZM124.816 27.992C122.368 27.992 120.46 28.64 119.056 29.864C117.616 31.124 116.86 32.96 116.86 35.192V39.836C116.86 42.068 117.616 43.904 119.056 45.164C120.46 46.388 122.368 47 124.816 47H125.212C126.976 47 128.524 46.676 129.748 45.992C131.08 45.272 132.052 44.192 132.628 42.824L129.424 41.528C128.884 42.86 127.444 43.544 125.212 43.544H124.816C123.268 43.544 122.08 43.22 121.324 42.572C120.676 41.96 120.316 41.06 120.316 39.836V39.224H132.736V35.192C132.736 32.96 131.98 31.124 130.54 29.864C129.136 28.64 127.228 27.992 124.816 27.992ZM124.816 31.448C126.328 31.448 127.516 31.808 128.272 32.456C128.956 33.032 129.28 33.968 129.28 35.192V35.768H120.316V35.192C120.316 33.968 120.676 33.032 121.324 32.456C122.08 31.808 123.268 31.448 124.816 31.448ZM148.952 25.256V21.8H134.192V25.256H139.844V47H143.3V25.256H148.952ZM158.355 27.992C155.907 27.992 153.999 28.64 152.595 29.864C151.155 31.124 150.399 32.96 150.399 35.192V39.836C150.399 42.068 151.155 43.904 152.595 45.164C153.999 46.388 155.907 47 158.355 47C160.767 47 162.675 46.388 164.079 45.164C165.519 43.904 166.275 42.068 166.275 39.836V35.192C166.275 32.96 165.519 31.124 164.079 29.864C162.675 28.64 160.767 27.992 158.355 27.992ZM158.355 31.448C159.867 31.448 161.055 31.808 161.811 32.456C162.495 33.032 162.819 33.968 162.819 35.192V39.836C162.819 41.06 162.495 41.96 161.811 42.572C161.055 43.22 159.867 43.544 158.355 43.544C156.807 43.544 155.619 43.22 154.863 42.572C154.215 41.96 153.855 41.06 153.855 39.836V35.192C153.855 33.968 154.215 33.032 154.863 32.456C155.619 31.808 156.807 31.448 158.355 31.448ZM171.317 21.8V47H174.773V37.676H180.029C182.693 37.676 184.817 36.992 186.329 35.624C186.545 35.48 186.725 35.264 186.905 35.084C188.093 33.716 188.741 31.916 188.741 29.756C188.741 27.272 187.913 25.22 186.329 23.852C184.817 22.484 182.693 21.8 180.029 21.8H171.317ZM174.773 25.256H180.029C181.793 25.256 183.197 25.652 184.061 26.444C184.853 27.164 185.285 28.28 185.285 29.756C185.285 30.944 184.997 31.88 184.457 32.6C184.349 32.78 184.205 32.924 184.061 33.068C183.197 33.824 181.793 34.22 180.029 34.22H174.773V25.256ZM196.148 21.8H192.692V39.836C192.692 41.924 193.124 43.616 194.024 44.876C194.528 45.56 195.14 46.1 195.896 46.46C196.616 46.82 197.408 47 198.308 47V43.544C197.444 43.544 197.048 43.184 196.832 42.86C196.256 42.068 196.148 40.772 196.148 39.836V21.8ZM208.733 27.992C206.501 27.992 204.701 28.532 203.333 29.576C201.893 30.656 201.029 32.24 200.849 34.22L204.269 34.58C204.341 33.824 204.593 31.448 208.733 31.448H208.769C210.317 31.448 211.505 31.808 212.225 32.456C212.909 33.032 213.269 33.968 213.269 35.192V35.768H207.977C205.889 35.768 204.197 36.236 202.973 37.1C202.253 37.604 201.713 38.216 201.353 38.972C200.993 39.692 200.813 40.52 200.813 41.384C200.813 42.284 200.993 43.076 201.353 43.796C201.713 44.552 202.253 45.164 202.973 45.668C204.197 46.568 205.889 47 207.977 47H208.769C210.533 47 212.045 46.676 213.269 46.028V47H216.725V35.192C216.725 32.96 215.933 31.124 214.493 29.864C213.125 28.64 211.181 27.992 208.769 27.992H208.733ZM213.269 39.224V39.836C213.269 41.06 212.909 41.96 212.225 42.572C211.505 43.22 210.317 43.544 208.769 43.544H207.977C206.285 43.544 205.421 43.184 204.953 42.86C204.665 42.644 204.269 42.248 204.269 41.384C204.269 40.52 204.665 40.16 204.953 39.908C205.745 39.368 207.041 39.224 207.977 39.224H213.269ZM228.632 27.992C226.184 27.992 224.276 28.64 222.872 29.864C221.432 31.124 220.676 32.96 220.676 35.192V39.836C220.676 42.068 221.432 43.904 222.872 45.164C224.276 46.388 226.184 47 228.632 47C232.304 47 234.932 45.524 236.012 42.824L232.808 41.528C232.268 42.86 230.864 43.544 228.632 43.544C227.084 43.544 225.896 43.22 225.14 42.572C224.492 41.96 224.132 41.06 224.132 39.836V35.192C224.132 33.968 224.492 33.032 225.14 32.456C225.896 31.808 227.084 31.448 228.632 31.448C230.864 31.448 232.268 32.132 232.808 33.5L236.012 32.204C234.932 29.504 232.304 27.992 228.632 27.992ZM247.23 27.992C244.782 27.992 242.874 28.64 241.47 29.864C240.03 31.124 239.274 32.96 239.274 35.192V39.836C239.274 42.068 240.03 43.904 241.47 45.164C242.874 46.388 244.782 47 247.23 47H247.626C249.39 47 250.938 46.676 252.162 45.992C253.494 45.272 254.466 44.192 255.042 42.824L251.838 41.528C251.298 42.86 249.858 43.544 247.626 43.544H247.23C245.682 43.544 244.494 43.22 243.738 42.572C243.09 41.96 242.73 41.06 242.73 39.836V39.224H255.15V35.192C255.15 32.96 254.394 31.124 252.954 29.864C251.55 28.64 249.642 27.992 247.23 27.992ZM247.23 31.448C248.742 31.448 249.93 31.808 250.686 32.456C251.37 33.032 251.694 33.968 251.694 35.192V35.768H242.73V35.192C242.73 33.968 243.09 33.032 243.738 32.456C244.494 31.808 245.682 31.448 247.23 31.448Z" fill="url(#paint2_linear_91_478)"/>
<defs>
<linearGradient id="paint0_linear_91_478" x1="2.007" y1="16.4809" x2="47.8679" y2="53.7978" gradientUnits="userSpaceOnUse">
<stop stop-color="#5322CE"/>
<stop offset="1" stop-color="#7F59FF"/>
</linearGradient>
<linearGradient id="paint1_linear_91_478" x1="12.8648" y1="18.4315" x2="28.9422" y2="39.3008" gradientUnits="userSpaceOnUse">
<stop stop-color="#5322CE"/>
<stop offset="1" stop-color="#7F59FF"/>
</linearGradient>
<linearGradient id="paint2_linear_91_478" x1="95.0625" y1="13" x2="174.744" y2="93.4559" gradientUnits="userSpaceOnUse">
<stop stop-color="#7F59FF"/>
<stop offset="1" stop-color="#6132D9"/>
</linearGradient>
</defs>
</svg>
